<?xml version="1.0" encoding="UTF-8" standalone="no"?><!DOCTYPE svg PUBLIC "-//W3C//DTD SVG 1.1//EN" "http://www.w3.org/Graphics/SVG/1.1/DTD/svg11.dtd"><svg width="100%" height="100%" viewBox="0 0 313 363" version="1.1" xmlns="http://www.w3.org/2000/svg" xmlns:xlink="http://www.w3.org/1999/xlink" xml:space="preserve" xmlns:serif="http://www.serif.com/" style="fill-rule:evenodd;clip-rule:evenodd;stroke-linejoin:round;stroke-miterlimit:2;"><path id="symbol-asset" serif:id="symbol asset" d="M155.261,361.914c-0.277,-0.248 -0.451,-0.608 -0.451,-1.008l-0,-3.042c-2.075,-0.589 -3.597,-2.5 -3.597,-4.763c0,-2.263 1.522,-4.173 3.597,-4.763l0,-2.905l-20.575,-20.575l7.507,-7.507c-73.947,-7.528 -131.643,-68.926 -131.643,-143.392c0,-28.878 8.677,-55.791 23.614,-78.359c-10.49,-3.916 -31.421,-11.83 -32.724,-12.304c-5.804,-2.111 14.815,-5.18 39.498,-6.867c1.761,-2.852 4.784,-9.307 2.873,-17.833c-0.781,-3.482 -7.136,4.845 -7.136,1.641c0,-3.036 2.45,-9.927 9.193,-9.927c4.372,0 7.212,2.033 8.501,7.292l4.604,-27.81l22.195,3.675c-1.133,-2.239 -1.021,-4.625 0.068,-7.264c2.77,-6.712 10.65,-6.315 13.678,-5.066c3.197,1.319 -6.737,3.25 -4.568,6.428c4.837,7.084 18.198,3.482 21.033,4.024c1.1,0.21 -3.244,6.011 -5.888,7.487l-0.121,0.068c5.195,-1.937 10.53,-3.593 15.987,-4.949c-3.242,-0.052 -9.182,-2.151 -8.444,-2.892c2.037,-2.044 15.108,-6.591 15.116,-15.169c0.004,-3.848 -9.294,0.15 -7.394,-2.741c1.799,-2.738 8.088,-7.503 14.156,-3.516c2.928,1.924 4.425,4.361 4.194,7.751l17.628,-17.628l17.628,17.628c-0.231,-3.39 1.266,-5.827 4.194,-7.751c6.068,-3.987 12.357,0.778 14.156,3.516c1.899,2.89 -7.398,-1.108 -7.394,2.741c0.008,8.578 13.078,13.125 15.116,15.169c0.739,0.741 -5.202,2.84 -8.444,2.892c5.457,1.356 10.792,3.012 15.987,4.949l-0.121,-0.068c-2.643,-1.476 -6.988,-7.276 -5.888,-7.487c2.835,-0.542 16.196,3.06 21.033,-4.024c2.17,-3.178 -7.765,-5.109 -4.568,-6.428c3.029,-1.25 10.909,-1.646 13.678,5.066c1.089,2.639 1.201,5.026 0.068,7.264l22.195,-3.675l4.604,27.81c1.289,-5.259 4.13,-7.292 8.501,-7.292c6.742,0 9.193,6.891 9.193,9.927c0,3.205 -6.355,-5.122 -7.136,-1.641c-1.912,8.525 1.112,14.981 2.873,17.833c24.683,1.687 45.302,4.756 39.498,6.867c-1.303,0.474 -22.234,8.389 -32.724,12.304c14.937,22.568 23.614,49.481 23.614,78.359c0,74.466 -57.696,135.865 -131.643,143.392l7.507,7.507l-20.575,20.575l0,2.905c2.075,0.589 3.597,2.5 3.597,4.763c0,2.263 -1.522,4.173 -3.597,4.763l-0,3.042c-0,0.4 -0.174,0.76 -0.451,1.008c-0.239,0.214 -0.556,0.345 -0.902,0.345c-0.346,0 -0.663,-0.13 -0.902,-0.345Zm-0,-317.904l-3.301,-3.301c-24.257,0.878 -46.907,7.986 -66.324,19.739l-0.971,5.862l-6.412,-1.062c-4.448,3.1 -8.698,6.456 -12.728,10.045c2.802,-0.058 5.561,-0.088 8.247,-0.088c46.047,0 68.237,4.112 73.785,12.017c1.12,-2.468 3.27,-4.37 5.899,-5.156l0,-4.596c-3.017,-0.735 -5.566,-2.67 -7.111,-5.27c-3.325,1.442 -8.785,1.911 -9.531,0.763c-0.703,-1.08 4.457,-4.272 2.882,-5.773c-1.657,-1.578 -10.75,-2.769 -12.704,-2.769c0,0 -0.253,1.578 0.975,3.083c1.294,1.586 -3.75,0.489 -7.746,-1.959c-3.352,-2.053 -5.831,-5.388 -4.534,-5.645c6.846,-1.353 22.437,0.056 29.347,3.941c0.957,-4.205 4.24,-7.53 8.421,-8.548l0,-5.555c0,-1.177 0.754,-2.18 1.804,-2.552c0.282,-0.1 0.586,-0.154 0.902,-0.154c0.316,0 0.62,0.054 0.902,0.154c1.051,0.372 1.804,1.375 1.804,2.552l0,5.555c4.182,1.019 7.464,4.343 8.421,8.548c6.91,-3.885 22.501,-5.295 29.347,-3.941c1.298,0.257 -1.182,3.592 -4.534,5.645c-3.996,2.448 -9.04,3.545 -7.746,1.959c1.228,-1.506 0.975,-3.083 0.975,-3.083c-1.954,0 -11.047,1.191 -12.704,2.769c-1.575,1.501 3.584,4.693 2.882,5.773c-0.747,1.148 -6.207,0.679 -9.531,-0.763c-1.545,2.6 -4.094,4.535 -7.111,5.27l0,4.596c2.63,0.786 4.78,2.689 5.899,5.156c5.548,-7.905 27.738,-12.017 73.785,-12.017c2.686,-0 5.445,0.031 8.247,0.088c-4.03,-3.589 -8.28,-6.945 -12.728,-10.045l-6.412,1.062l-0.971,-5.862c-19.417,-11.753 -42.066,-18.861 -66.324,-19.739l-3.301,3.301l-0.902,0.902l-0.902,-0.902Zm-85.548,165.605l0,-83.125l-19.374,83.125l19.374,0Zm60.82,-177.477c3.713,-0.665 7.474,-1.193 11.278,-1.579l-5.652,-5.652c-0.721,1.396 -1.611,2.9 -2.678,4.523c-0.782,1.191 -1.805,2.062 -2.949,2.708Zm16.4,65.96c-0.095,0.165 -0.194,0.33 -0.296,0.496c-9.375,15.299 -19.265,15.499 -25.312,15.499c-6.047,0 -17.118,-1.981 -17.138,-6.576c-0.02,-4.595 13.082,-9.863 13.082,-7.791c0,5.488 -1.034,12.32 7.301,6.153c3.861,-2.857 5.727,-15.4 -11.145,-20.363c-9.394,-2.763 -14.303,-4.904 -27.435,-4.134c-1.404,1.736 -8.922,5.52 -9.882,8.066c-0.152,0.403 -0.214,0.817 -0.208,1.238c0.326,-0.101 0.671,-0.155 1.03,-0.155c1.922,0 3.483,1.561 3.483,3.483c0,1.531 -0.99,2.832 -2.364,3.299c0.112,0.622 0.113,1.231 -0.07,1.818l26.648,110.482l2.779,0c0.166,0 1.114,5.508 -0.902,6.029c-20.541,5.313 -28.564,14.295 -31.377,18.691l0,3.013c1.631,0.562 2.804,2.111 2.804,3.932c0,1.821 -1.173,3.37 -2.804,3.932l0,2.556c0,0.747 -0.606,1.353 -1.353,1.353c-0.747,0 -1.353,-0.606 -1.353,-1.353l0,-2.556c-1.631,-0.562 -2.804,-2.111 -2.804,-3.932c0,-1.821 1.173,-3.37 2.804,-3.932l0,-3.316c-2.678,-4.508 -10.185,-13.164 -29.678,-17.56c-2.337,-0.527 -1.244,-6.858 -1.244,-6.858l2.358,0l22.999,-98.682c-0.393,0.03 -0.784,0.006 -1.171,-0.081c-4.377,-0.976 -18.821,-9.543 -17.718,-11.276c1.462,-2.298 6.497,-8.253 11.21,-12.785c-3.705,1.911 -7.248,4.262 -10.333,6.296c-17.51,22.435 -27.919,50.468 -27.919,80.872c0,47.422 25.321,89.074 63.414,112.716l30.769,0c0,0 7.507,-6.864 9.89,-9.111c3.141,-2.962 -1.617,-2.408 -1.617,-9.235c0,-0.796 3.231,1.743 5.728,3.09c1.836,0.991 3.039,1.47 5.034,1.47c2.535,0 10.947,-6.361 10.947,-18.447c0,-2.444 5.662,5.167 5.662,2.818c0,-3.283 -3.958,-21.168 -12.825,-21.168c-2.823,0 4.908,-4.242 7.163,-4.517c0.967,-0.118 3.305,1.87 5.662,4.181l0,-2.55c-4.753,-2.087 -8.076,-6.837 -8.076,-12.357c0,-5.52 3.323,-10.27 8.076,-12.357l0,-1.11c-1.673,0.927 -4.541,2.321 -6.662,2.321c-4.061,0 -9.899,-4.032 -7.02,-4.032c6.273,0 10.978,-3.781 13.682,-28.562l-0,-61.254c-1.368,-1.309 -3.567,-3.535 -3.54,-4.294l2.641,-1.203c0,0 -8.903,-1.513 -6.956,-2.805c2.165,-1.437 3.496,-6.798 4.036,-9.453Zm-57.958,-57.815l-1.069,6.458c2.936,-1.54 5.931,-2.986 8.981,-4.332c-1.441,0.181 -2.923,0.068 -4.38,-0.533c-1.284,-0.53 -2.46,-1.061 -3.531,-1.593Zm9.155,169.332l-22.103,-91.637l0,91.637l22.103,0Zm-47.577,-134.95c4.071,-4.201 8.398,-8.162 12.955,-11.858l-8.987,-1.488c0.132,1.373 0.199,2.893 0.199,4.572c0,2.627 -2.235,6.188 -4.167,8.774Zm131.241,-42.527c-1.144,-0.645 -2.166,-1.517 -2.949,-2.708c-1.066,-1.623 -1.956,-3.126 -2.678,-4.523l-5.652,5.652c3.804,0.386 7.566,0.914 11.278,1.579Zm41.558,8.145c-1.071,0.533 -2.247,1.063 -3.531,1.593c-1.458,0.601 -2.939,0.714 -4.38,0.533c3.05,1.346 6.045,2.791 8.981,4.332l-1.069,-6.458Zm-9.155,169.332l22.103,0l0,-91.637l-22.103,91.637Zm28.417,0l19.374,0l-19.374,-83.125l0,83.125Zm-77.22,-111.516c0.54,2.655 1.872,8.016 4.036,9.453c1.947,1.292 -6.956,2.805 -6.956,2.805l2.641,1.203c0.028,0.758 -2.171,2.984 -3.54,4.294l-0,61.254c2.704,24.782 7.409,28.562 13.682,28.562c2.879,0 -2.959,4.032 -7.02,4.032c-2.121,0 -4.988,-1.394 -6.662,-2.321l0,1.11c4.753,2.087 8.076,6.837 8.076,12.357c0,5.52 -3.323,10.27 -8.076,12.357l0,2.55c2.357,-2.311 4.695,-4.299 5.662,-4.181c2.256,0.275 9.986,4.517 7.163,4.517c-8.867,0 -12.825,17.885 -12.825,21.168c0,2.349 5.662,-5.262 5.662,-2.818c0,12.086 8.412,18.447 10.947,18.447c1.995,0 3.198,-0.48 5.034,-1.47c2.496,-1.347 5.728,-3.886 5.728,-3.09c0,6.827 -4.758,6.273 -1.617,9.235c2.383,2.247 9.89,9.111 9.89,9.111l30.769,0c38.093,-23.642 63.414,-65.294 63.414,-112.716c-0,-30.404 -10.409,-58.437 -27.919,-80.872c-3.086,-2.034 -6.629,-4.385 -10.333,-6.296c4.714,4.532 9.748,10.487 11.21,12.785c1.103,1.733 -13.34,10.3 -17.718,11.276c-0.387,0.086 -0.779,0.111 -1.171,0.081l22.999,98.682l2.358,0c0,0 1.093,6.331 -1.244,6.858c-19.493,4.396 -27.001,13.052 -29.678,17.56l0,3.316c1.631,0.562 2.804,2.111 2.804,3.932c0,1.821 -1.173,3.37 -2.804,3.932l0,2.556c-0,0.747 -0.606,1.353 -1.353,1.353c-0.747,-0 -1.353,-0.606 -1.353,-1.353l0,-2.556c-1.631,-0.562 -2.804,-2.111 -2.804,-3.932c0,-1.821 1.173,-3.37 2.804,-3.932l0,-3.013c-2.813,-4.396 -10.836,-13.378 -31.377,-18.691c-2.016,-0.522 -1.068,-6.029 -0.902,-6.029l2.779,0l26.648,-110.482c-0.182,-0.587 -0.182,-1.196 -0.07,-1.818c-1.374,-0.466 -2.364,-1.768 -2.364,-3.299c0,-1.922 1.561,-3.483 3.483,-3.483c0.358,-0 0.704,0.054 1.03,0.155c0.005,-0.422 -0.056,-0.835 -0.208,-1.238c-0.96,-2.546 -8.478,-6.33 -9.882,-8.066c-13.131,-0.77 -18.041,1.371 -27.435,4.134c-16.872,4.963 -15.006,17.506 -11.145,20.363c8.335,6.167 7.301,-0.665 7.301,-6.153c0,-2.072 13.101,3.196 13.082,7.791c-0.02,4.595 -11.091,6.576 -17.138,6.576c-6.047,0 -15.937,-0.2 -25.312,-15.499c-0.102,-0.166 -0.201,-0.332 -0.296,-0.496Zm96.379,-23.434c-1.931,-2.586 -4.167,-6.147 -4.167,-8.774c0,-1.679 0.066,-3.199 0.199,-4.572l-8.987,1.488c4.557,3.697 8.884,7.657 12.955,11.858Z"/></svg>